<?xml version="1.0" encoding="utf-8"?>
<!-- Generator: Adobe Illustrator 21.0.0, SVG Export Plug-In . SVG Version: 6.00 Build 0)  -->
<svg version="1.1" id="Capa_1" xmlns="http://www.w3.org/2000/svg" xmlns:xlink="http://www.w3.org/1999/xlink" x="0px" y="0px"
	 viewBox="0 0 39 50.3" style="enable-background:new 0 0 39 50.3;" xml:space="preserve">
<style type="text/css">
	.st0{opacity:0.7;fill:url(#SVGID_1_);}
	.st1{opacity:0.7;fill:url(#SVGID_2_);}
	.st2{opacity:0.7;}
	.st3{clip-path:url(#SVGID_4_);}
	.st4{fill:#F6F6F6;}
	.st5{fill:#EDEDED;}
	.st6{fill:#DADADA;}
	.st7{fill:none;stroke:#F3F3F4;stroke-width:1.5;stroke-miterlimit:10;}
	.st8{fill:url(#SVGID_5_);}
	.st9{fill:#FFFFFF;}
	.st10{fill:none;stroke:#ECECED;stroke-width:1.5;stroke-miterlimit:10;}
	.st11{fill:none;stroke:#FF3366;stroke-miterlimit:10;}
	.st12{fill:#FF3366;}
	.st13{fill:#50D2C2;}
	.st14{fill:#C6C6C6;}
	.st15{fill:none;stroke:#FFFFFF;stroke-width:2.208;stroke-miterlimit:10;}
	.st16{fill:url(#SVGID_6_);}
	.st17{fill:#F8F8F9;}
	.st18{fill:none;stroke:#FFFFFF;stroke-width:1.5;stroke-miterlimit:10;}
	.st19{fill:url(#SVGID_7_);}
	.st20{fill-rule:evenodd;clip-rule:evenodd;fill:#FFFFFF;}
	.st21{opacity:0.7;fill:#0C4395;}
	.st22{fill:#5089E4;}
	.st23{fill:#62B22F;}
	.st24{fill:#F9F9F9;}
	.st25{fill:url(#SVGID_8_);}
	.st26{fill:url(#SVGID_9_);}
	.st27{fill:url(#SVGID_10_);}
	.st28{fill:url(#SVGID_11_);}
	.st29{fill:url(#SVGID_12_);}
	.st30{fill:#467EE0;}
	.st31{fill:url(#SVGID_13_);}
	.st32{fill:url(#SVGID_14_);}
	.st33{fill:url(#SVGID_15_);}
	.st34{fill:url(#SVGID_16_);}
	.st35{fill:#0C4395;}
	.st36{fill:none;stroke:#FFFFFF;stroke-miterlimit:10;}
	.st37{fill:url(#SVGID_17_);}
	.st38{fill:url(#SVGID_18_);}
	.st39{fill:#FFC963;}
	.st40{opacity:0.39;}
	.st41{opacity:0.39;fill:#FFC963;}
	.st42{opacity:0.1;fill:#FFFFFF;}
	.st43{fill:#F8F9FB;}
	.st44{fill:none;stroke:#FFFFFF;stroke-width:2;stroke-miterlimit:10;}
	.st45{fill:url(#SVGID_19_);}
	.st46{fill:url(#SVGID_20_);}
	.st47{fill:url(#SVGID_21_);}
	.st48{fill:url(#SVGID_22_);}
	.st49{fill:url(#SVGID_23_);}
	.st50{fill:url(#SVGID_24_);}
	.st51{fill:#FF8C78;}
	.st52{fill:#E4E5E7;}
	.st53{fill:#A9D234;}
	.st54{fill:none;stroke:#C4C4C4;stroke-width:5.7003;stroke-miterlimit:10;}
	.st55{fill:none;stroke:#FFFFFF;stroke-width:5.7003;stroke-miterlimit:10;}
	.st56{fill:#C4C4C4;}
	.st57{fill:url(#SVGID_25_);}
	.st58{fill:url(#SVGID_26_);}
	.st59{fill:url(#SVGID_27_);}
	.st60{fill:url(#SVGID_28_);}
	.st61{fill:url(#SVGID_29_);}
	.st62{fill:url(#SVGID_30_);}
	.st63{fill:url(#SVGID_31_);}
	.st64{fill:url(#SVGID_32_);}
	.st65{fill:none;stroke:#000000;stroke-width:4.9245;stroke-miterlimit:10;}
	.st66{fill:none;stroke:#FFFFFF;stroke-width:4.9245;stroke-miterlimit:10;}
	.st67{fill:none;stroke:#C4C4C4;stroke-width:4.9245;stroke-miterlimit:10;}
	.st68{fill:none;stroke:#C4C4C4;stroke-width:4.9245;stroke-miterlimit:10;stroke-dasharray:4.9245,9.849;}
	.st69{fill:url(#SVGID_33_);}
	.st70{fill:url(#SVGID_34_);}
	.st71{fill:url(#SVGID_35_);}
	.st72{fill:url(#SVGID_36_);}
	.st73{fill:url(#SVGID_37_);}
	.st74{fill:none;stroke:#DADADA;stroke-width:2;stroke-miterlimit:10;}
	.st75{fill:url(#SVGID_38_);}
	.st76{fill:url(#SVGID_39_);}
	.st77{fill:url(#SVGID_40_);}
	.st78{fill:url(#SVGID_41_);}
	.st79{fill:url(#SVGID_42_);}
	.st80{fill:url(#SVGID_45_);}
	.st81{fill:url(#SVGID_46_);}
	.st82{fill:url(#SVGID_47_);}
	.st83{fill:url(#SVGID_48_);}
	.st84{fill:url(#SVGID_49_);}
	.st85{fill:none;stroke:#5E9CFF;stroke-width:2;stroke-miterlimit:10;}
	.st86{fill:url(#SVGID_50_);}
	.st87{fill:url(#SVGID_51_);}
	.st88{fill:url(#SVGID_52_);}
	.st89{fill:url(#SVGID_53_);}
	.st90{fill:url(#SVGID_54_);}
	.st91{fill:url(#SVGID_55_);}
	.st92{fill:url(#SVGID_56_);}
	.st93{fill:url(#SVGID_59_);}
	.st94{fill:url(#SVGID_60_);}
	.st95{fill:url(#SVGID_61_);}
	.st96{fill:url(#SVGID_62_);}
	.st97{fill:url(#SVGID_63_);}
	.st98{fill:url(#SVGID_64_);}
	.st99{fill:none;stroke:#FFFFFF;stroke-width:10;stroke-miterlimit:10;}
	.st100{fill:url(#SVGID_67_);}
	.st101{fill:url(#SVGID_68_);}
	.st102{fill:none;stroke:#FFFFFF;stroke-width:1.4142;stroke-miterlimit:10;}
	.st103{fill:none;stroke:#FFFFFF;stroke-width:8.0427;stroke-miterlimit:10;}
	.st104{fill:url(#SVGID_69_);}
	.st105{fill:url(#SVGID_70_);}
	.st106{fill:url(#SVGID_71_);}
	.st107{fill:url(#SVGID_74_);}
	.st108{fill:url(#SVGID_75_);}
	.st109{fill:url(#SVGID_76_);}
	.st110{fill:url(#SVGID_77_);}
	.st111{fill:url(#SVGID_78_);}
	.st112{fill:url(#SVGID_81_);}
	.st113{fill:url(#SVGID_82_);}
	.st114{fill:url(#SVGID_83_);}
	.st115{fill:url(#SVGID_84_);}
	.st116{fill:url(#SVGID_85_);}
	.st117{fill:url(#SVGID_86_);}
	.st118{fill:url(#SVGID_87_);}
	.st119{fill:url(#SVGID_88_);}
	.st120{fill:url(#SVGID_89_);}
	.st121{fill:url(#SVGID_90_);}
	.st122{fill:#094C9F;}
	.st123{fill:#3B67A4;}
	.st124{fill:#467EE1;}
	.st125{fill:url(#SVGID_91_);}
	.st126{fill:url(#SVGID_92_);}
	.st127{fill:url(#SVGID_93_);}
	.st128{fill:none;stroke:#9D9D9C;stroke-width:2;stroke-miterlimit:10;}
	.st129{fill:none;stroke:#F3F3F4;stroke-width:1.1352;stroke-miterlimit:10;}
	.st130{fill:url(#SVGID_94_);}
	.st131{fill:none;stroke:#FFFFFF;stroke-width:4;stroke-linecap:round;stroke-miterlimit:10;}
	.st132{fill:url(#SVGID_95_);}
	.st133{fill:url(#SVGID_96_);}
	.st134{fill:none;stroke:#C6C6C6;stroke-width:0.6413;stroke-miterlimit:10;}
	.st135{clip-path:url(#SVGID_98_);fill:#50D2C2;}
	.st136{clip-path:url(#SVGID_100_);fill:#50D2C2;}
	.st137{fill:url(#SVGID_101_);}
	.st138{fill:url(#SVGID_102_);}
	.st139{fill:url(#SVGID_103_);}
	.st140{fill:url(#SVGID_104_);}
	.st141{fill:url(#SVGID_105_);}
	.st142{fill:url(#SVGID_106_);}
	.st143{fill:url(#SVGID_107_);}
	.st144{fill:#F6F6F6;stroke:#F3F3F4;stroke-width:1.5;stroke-miterlimit:10;}
	.st145{fill:url(#SVGID_108_);}
	.st146{fill:url(#SVGID_109_);}
	.st147{fill:url(#SVGID_110_);}
	.st148{fill:url(#SVGID_111_);}
	.st149{fill:url(#SVGID_112_);}
	.st150{fill:url(#SVGID_115_);}
	.st151{fill:url(#SVGID_116_);}
	.st152{fill:#CFDBE5;}
	.st153{fill:#FF9975;}
	.st154{fill:#192E2D;}
	.st155{fill:url(#SVGID_119_);}
	.st156{fill:#575756;}
	.st157{fill:url(#SVGID_120_);}
	.st158{fill:url(#SVGID_121_);}
	.st159{fill:url(#SVGID_122_);}
	.st160{fill:url(#SVGID_123_);}
	.st161{fill:url(#SVGID_124_);}
	.st162{fill:url(#SVGID_125_);}
	.st163{fill:url(#SVGID_126_);}
	.st164{fill:url(#SVGID_127_);}
	.st165{fill:url(#SVGID_128_);}
	.st166{fill:url(#SVGID_129_);}
	.st167{fill:url(#SVGID_130_);}
	.st168{fill:url(#SVGID_131_);}
	.st169{fill:url(#SVGID_132_);}
	.st170{fill:url(#SVGID_133_);}
	.st171{fill:url(#SVGID_134_);}
	.st172{fill:url(#SVGID_135_);}
	.st173{fill:url(#SVGID_136_);}
	.st174{fill:url(#SVGID_137_);}
	.st175{fill:url(#SVGID_138_);}
	.st176{fill:url(#SVGID_139_);}
	.st177{fill:url(#SVGID_140_);}
	.st178{fill:url(#SVGID_141_);}
	.st179{fill:url(#SVGID_142_);}
	.st180{fill:url(#SVGID_143_);}
	.st181{opacity:0.8;fill:url(#SVGID_144_);}
	.st182{fill:url(#SVGID_145_);}
	.st183{fill:url(#SVGID_146_);}
	.st184{clip-path:url(#SVGID_148_);}
	.st185{opacity:0.1;}
	.st186{fill:url(#SVGID_149_);}
	.st187{fill:url(#SVGID_150_);}
	.st188{fill:url(#SVGID_151_);}
	.st189{fill:url(#SVGID_152_);}
	.st190{fill:url(#SVGID_153_);}
	.st191{fill:url(#SVGID_154_);}
	.st192{fill:url(#SVGID_155_);}
	.st193{fill:url(#SVGID_156_);}
	.st194{fill:url(#SVGID_157_);}
	.st195{fill:url(#SVGID_158_);}
	.st196{fill:url(#SVGID_159_);}
	.st197{fill:url(#SVGID_160_);}
	.st198{fill:url(#SVGID_161_);}
	.st199{fill:url(#SVGID_162_);}
	.st200{fill:url(#SVGID_163_);}
	.st201{fill:url(#SVGID_164_);}
	.st202{fill:url(#SVGID_165_);}
	.st203{fill:url(#SVGID_166_);}
	.st204{fill:url(#SVGID_167_);}
	.st205{fill:url(#SVGID_168_);}
	.st206{fill:url(#SVGID_169_);}
	.st207{fill:url(#SVGID_170_);}
	.st208{fill:url(#SVGID_171_);}
	.st209{fill:url(#SVGID_172_);}
	.st210{fill:url(#SVGID_173_);}
	.st211{fill:url(#SVGID_174_);}
	.st212{fill:url(#SVGID_175_);}
	.st213{fill:url(#SVGID_176_);}
	.st214{fill:url(#SVGID_177_);}
	.st215{fill:url(#SVGID_178_);}
	.st216{fill:#FBDB69;}
	.st217{opacity:0.8;}
	.st218{clip-path:url(#SVGID_180_);}
	.st219{fill:url(#SVGID_181_);}
	.st220{opacity:0.8;fill:url(#SVGID_182_);}
	.st221{opacity:0.8;fill:url(#SVGID_183_);}
	.st222{opacity:0.8;fill:url(#SVGID_184_);}
	.st223{opacity:0.8;fill:url(#SVGID_185_);}
	.st224{fill:url(#SVGID_186_);}
	.st225{opacity:0.8;fill:url(#SVGID_187_);}
	.st226{fill:#9E6235;}
	.st227{fill:#93582C;}
	.st228{fill:#B77946;}
	.st229{fill:url(#SVGID_188_);}
	.st230{fill:url(#SVGID_189_);}
	.st231{fill:url(#SVGID_190_);}
	.st232{fill:url(#SVGID_191_);}
	.st233{fill:url(#SVGID_192_);}
	.st234{fill:url(#SVGID_193_);}
	.st235{fill:url(#SVGID_194_);}
	.st236{fill:url(#SVGID_195_);}
	.st237{fill:url(#SVGID_196_);}
	.st238{fill:url(#SVGID_197_);}
	.st239{fill:url(#SVGID_198_);}
	.st240{fill:url(#SVGID_199_);}
	.st241{fill:url(#SVGID_200_);}
	.st242{fill:url(#SVGID_201_);}
	.st243{fill-rule:evenodd;clip-rule:evenodd;fill:#0B4395;}
	.st244{fill:url(#SVGID_202_);}
	.st245{fill:none;stroke:#FFFFFF;stroke-width:6.4553;stroke-linecap:round;stroke-miterlimit:10;}
	.st246{fill:none;stroke:#FFFFFF;stroke-width:6.455;stroke-linecap:round;stroke-linejoin:round;stroke-miterlimit:10;}
	.st247{fill:url(#SVGID_203_);}
	.st248{fill:url(#SVGID_204_);}
	.st249{fill:url(#SVGID_205_);}
	.st250{fill:url(#SVGID_206_);}
	.st251{fill:url(#SVGID_207_);}
	.st252{fill:url(#SVGID_208_);}
	.st253{fill:url(#SVGID_209_);}
	.st254{fill:url(#SVGID_210_);}
	.st255{fill:url(#SVGID_211_);}
	.st256{fill:url(#SVGID_212_);}
	.st257{fill:url(#SVGID_213_);}
	.st258{fill:url(#SVGID_214_);}
	.st259{fill:url(#SVGID_215_);}
	.st260{fill:url(#SVGID_216_);}
	.st261{fill:url(#SVGID_217_);}
	.st262{fill:url(#SVGID_218_);}
	.st263{fill:none;stroke:#000000;stroke-width:3.246;stroke-linecap:round;stroke-linejoin:round;stroke-miterlimit:10;}
	.st264{fill:url(#SVGID_219_);}
	.st265{fill:url(#SVGID_220_);}
	.st266{fill:url(#SVGID_221_);}
	.st267{fill:url(#SVGID_222_);}
	.st268{fill:url(#SVGID_223_);}
	.st269{fill:url(#SVGID_224_);}
	.st270{fill:url(#SVGID_225_);}
	.st271{fill:url(#SVGID_226_);}
	.st272{fill:url(#SVGID_227_);}
	.st273{fill:url(#SVGID_228_);}
	.st274{fill:url(#SVGID_229_);}
	.st275{fill:url(#SVGID_230_);}
	.st276{fill:url(#SVGID_231_);}
	.st277{fill:url(#SVGID_232_);}
	.st278{fill:url(#SVGID_233_);}
	.st279{fill:url(#SVGID_234_);}
	.st280{fill:url(#SVGID_235_);}
	.st281{fill:url(#SVGID_236_);}
	.st282{fill:url(#SVGID_237_);}
	.st283{fill:url(#SVGID_238_);}
	.st284{fill:url(#SVGID_239_);}
	.st285{fill:url(#SVGID_240_);}
	.st286{fill:url(#SVGID_241_);}
	.st287{fill:url(#SVGID_242_);}
	.st288{fill:url(#SVGID_243_);}
	.st289{clip-path:url(#SVGID_245_);}
	.st290{fill:url(#SVGID_246_);}
	.st291{fill:url(#SVGID_247_);}
	.st292{fill:url(#SVGID_248_);}
	.st293{fill:url(#SVGID_249_);}
	.st294{fill:url(#SVGID_250_);}
	.st295{fill:url(#SVGID_251_);}
	.st296{fill:url(#SVGID_252_);}
	.st297{fill:url(#SVGID_253_);}
	.st298{fill:url(#SVGID_254_);}
	.st299{fill:url(#SVGID_255_);}
	.st300{fill:url(#SVGID_256_);}
	.st301{fill:url(#SVGID_257_);}
	.st302{fill:url(#SVGID_258_);}
	.st303{fill:url(#SVGID_259_);}
	.st304{fill:url(#SVGID_260_);}
	.st305{fill:url(#SVGID_261_);}
	.st306{fill:url(#SVGID_262_);}
	.st307{fill:url(#SVGID_263_);}
	.st308{fill:url(#SVGID_264_);}
	.st309{fill:url(#SVGID_265_);}
	.st310{fill:url(#SVGID_266_);}
	.st311{fill:url(#SVGID_267_);}
	.st312{fill:url(#SVGID_268_);}
	.st313{fill:url(#SVGID_269_);}
	.st314{fill:url(#SVGID_270_);}
	.st315{fill:url(#SVGID_271_);}
	.st316{fill:url(#SVGID_272_);}
	.st317{fill:url(#SVGID_273_);}
	.st318{fill:url(#SVGID_274_);}
	.st319{fill:url(#SVGID_275_);}
	.st320{clip-path:url(#SVGID_277_);}
	.st321{fill:url(#SVGID_278_);}
	.st322{opacity:0.8;fill:url(#SVGID_279_);}
	.st323{opacity:0.8;fill:url(#SVGID_280_);}
	.st324{opacity:0.8;fill:url(#SVGID_281_);}
	.st325{opacity:0.8;fill:url(#SVGID_282_);}
	.st326{fill:url(#SVGID_283_);}
	.st327{opacity:0.8;fill:url(#SVGID_284_);}
	.st328{fill:url(#SVGID_285_);}
	.st329{fill:url(#SVGID_286_);}
	.st330{fill:url(#SVGID_287_);}
	.st331{fill:url(#SVGID_288_);}
	.st332{fill:url(#SVGID_289_);}
	.st333{fill:url(#SVGID_290_);}
	.st334{fill:url(#SVGID_291_);}
	.st335{fill:url(#SVGID_292_);}
	.st336{fill:url(#SVGID_293_);}
	.st337{fill:url(#SVGID_294_);}
	.st338{fill:url(#SVGID_295_);}
	.st339{fill:url(#SVGID_296_);}
	.st340{fill:url(#SVGID_297_);}
	.st341{fill:url(#SVGID_298_);}
	.st342{fill:#18D174;}
	.st343{fill:url(#SVGID_299_);}
	.st344{clip-path:url(#SVGID_301_);}
	.st345{fill:url(#SVGID_302_);}
	.st346{fill:url(#SVGID_303_);}
	.st347{fill:url(#SVGID_304_);}
	.st348{fill:url(#SVGID_305_);}
	.st349{fill:url(#SVGID_306_);}
	.st350{fill:url(#SVGID_307_);}
	.st351{fill:url(#SVGID_308_);}
	.st352{fill:url(#SVGID_309_);}
	.st353{fill:url(#SVGID_310_);}
	.st354{fill:url(#SVGID_311_);}
	.st355{fill:url(#SVGID_312_);}
	.st356{fill:url(#SVGID_313_);}
	.st357{fill:url(#SVGID_314_);}
	.st358{fill:url(#SVGID_315_);}
	.st359{fill:url(#SVGID_316_);}
	.st360{fill:url(#SVGID_317_);}
	.st361{fill:url(#SVGID_318_);}
	.st362{fill:url(#SVGID_319_);}
	.st363{fill:url(#SVGID_320_);}
	.st364{fill:url(#SVGID_321_);}
	.st365{fill:url(#SVGID_322_);}
	.st366{fill:url(#SVGID_323_);}
	.st367{fill:url(#SVGID_324_);}
	.st368{fill:url(#SVGID_325_);}
	.st369{fill:url(#SVGID_326_);}
	.st370{fill:url(#SVGID_327_);}
	.st371{fill:url(#SVGID_328_);}
	.st372{fill:url(#SVGID_329_);}
	.st373{fill:url(#SVGID_330_);}
	.st374{fill:url(#SVGID_331_);}
	.st375{opacity:0.31;fill:url(#SVGID_332_);}
	.st376{fill:url(#SVGID_333_);}
	.st377{fill:url(#SVGID_334_);}
	.st378{opacity:0.5;fill:#F8F1A8;}
	.st379{opacity:0.25;fill:#F8F1A8;}
	.st380{fill:#F8F1A8;}
	.st381{fill:url(#SVGID_335_);}
	.st382{fill:url(#SVGID_336_);}
	.st383{fill:url(#SVGID_337_);}
	.st384{fill:#97F15C;}
	.st385{fill:#0BC3A7;}
	.st386{fill:#24DE95;}
	.st387{fill:#088E8F;}
	.st388{fill:#0A4A6D;}
	.st389{fill:#A8ECFF;}
	.st390{fill:#42D4FD;}
	.st391{fill:#22DFFF;}
	.st392{fill:#0CBEFC;}
	.st393{clip-path:url(#SVGID_339_);}
	.st394{fill:#0B4395;}
	.st395{fill:url(#SVGID_342_);}
	.st396{fill:url(#SVGID_343_);}
	.st397{clip-path:url(#SVGID_345_);}
	.st398{fill:url(#SVGID_346_);}
	.st399{fill:url(#SVGID_347_);}
	.st400{fill:url(#SVGID_348_);}
	.st401{fill:url(#SVGID_349_);}
	.st402{fill:url(#SVGID_350_);}
	.st403{fill:url(#SVGID_351_);}
	.st404{fill:url(#SVGID_352_);}
	.st405{fill:url(#SVGID_353_);}
	.st406{fill:url(#SVGID_354_);}
	.st407{fill:url(#SVGID_355_);}
	.st408{fill:url(#SVGID_356_);}
	.st409{fill:url(#SVGID_357_);}
	.st410{fill:url(#SVGID_358_);}
	.st411{fill:url(#SVGID_359_);}
	.st412{fill:url(#SVGID_360_);}
	.st413{fill:url(#SVGID_361_);}
	.st414{fill:url(#SVGID_362_);}
	.st415{fill:url(#SVGID_363_);}
	.st416{fill:url(#SVGID_364_);}
	.st417{fill:url(#SVGID_365_);}
	.st418{fill:url(#SVGID_366_);}
	.st419{fill:url(#SVGID_367_);}
	.st420{fill:url(#SVGID_368_);}
	.st421{fill:url(#SVGID_369_);}
	.st422{fill:url(#SVGID_370_);}
	.st423{fill:url(#SVGID_371_);}
	.st424{fill:url(#SVGID_372_);}
	.st425{fill:url(#SVGID_373_);}
	.st426{fill:url(#SVGID_374_);}
	.st427{fill:url(#SVGID_375_);}
	.st428{opacity:0.97;fill:url(#SVGID_376_);}
	.st429{opacity:0.64;}
	.st430{opacity:0.97;fill:url(#SVGID_377_);}
	.st431{fill:url(#SVGID_378_);}
	.st432{fill:url(#SVGID_379_);}
	.st433{fill:url(#SVGID_380_);}
	.st434{fill:url(#SVGID_381_);}
	.st435{fill:url(#SVGID_382_);}
	.st436{fill:url(#SVGID_383_);}
	.st437{clip-path:url(#SVGID_385_);fill:url(#SVGID_386_);}
	.st438{clip-path:url(#SVGID_385_);}
	.st439{fill:url(#SVGID_387_);}
	.st440{fill:url(#SVGID_388_);}
	.st441{fill:url(#SVGID_389_);}
	.st442{fill:url(#SVGID_390_);}
	.st443{fill:url(#SVGID_391_);}
	.st444{fill:url(#SVGID_392_);}
	.st445{fill:url(#SVGID_393_);}
	.st446{fill:url(#SVGID_394_);}
	.st447{fill:url(#SVGID_395_);}
	.st448{fill:url(#SVGID_396_);}
	.st449{fill:url(#SVGID_397_);}
	.st450{fill:url(#SVGID_398_);}
	.st451{fill:url(#SVGID_399_);}
	.st452{fill:url(#SVGID_400_);}
	.st453{fill:url(#SVGID_401_);}
	.st454{fill:url(#SVGID_402_);}
	.st455{fill:url(#SVGID_403_);}
	.st456{fill:url(#SVGID_404_);}
	.st457{fill:url(#SVGID_405_);}
	.st458{fill:url(#SVGID_406_);}
	.st459{fill:url(#SVGID_407_);}
	.st460{fill:url(#SVGID_408_);}
	.st461{fill:url(#SVGID_409_);}
	.st462{fill:url(#SVGID_410_);}
	.st463{fill:url(#SVGID_411_);}
	.st464{fill:url(#SVGID_412_);}
	.st465{fill:url(#SVGID_413_);}
	.st466{fill:url(#SVGID_414_);}
	.st467{fill:url(#SVGID_415_);}
	.st468{fill:url(#SVGID_416_);}
	.st469{clip-path:url(#SVGID_385_);fill:url(#SVGID_417_);}
	.st470{clip-path:url(#SVGID_385_);fill:url(#SVGID_418_);}
	.st471{clip-path:url(#SVGID_385_);fill:url(#SVGID_419_);}
	.st472{fill:url(#SVGID_420_);}
	.st473{fill:url(#SVGID_421_);}
	.st474{fill:url(#SVGID_422_);}
	.st475{clip-path:url(#SVGID_424_);fill:#50D2C2;}
	.st476{clip-path:url(#SVGID_426_);fill:#50D2C2;}
	.st477{fill:url(#SVGID_427_);}
	.st478{fill:url(#SVGID_428_);}
	.st479{fill:url(#SVGID_429_);}
	.st480{fill:url(#SVGID_430_);}
	.st481{fill:url(#SVGID_431_);}
	.st482{fill:url(#SVGID_432_);}
	.st483{fill:url(#SVGID_433_);}
	.st484{fill:url(#SVGID_434_);}
	.st485{fill:url(#SVGID_435_);}
	.st486{fill:url(#SVGID_436_);}
	.st487{fill:url(#SVGID_437_);}
	.st488{fill:url(#SVGID_438_);}
	.st489{fill:url(#SVGID_439_);}
	.st490{fill:url(#SVGID_440_);}
	.st491{fill:url(#SVGID_441_);}
	.st492{fill:url(#SVGID_442_);}
	.st493{fill:url(#SVGID_443_);}
	.st494{fill:url(#SVGID_444_);}
	.st495{fill:url(#SVGID_445_);}
	.st496{fill:url(#SVGID_446_);}
	.st497{fill:url(#SVGID_447_);}
	.st498{fill:url(#SVGID_448_);}
	.st499{fill:url(#SVGID_449_);}
	.st500{fill:url(#SVGID_450_);}
	.st501{fill:url(#SVGID_451_);}
</style>
<g>
	<g>
		<g>
			<defs>
				<path id="SVGID_423_" d="M19.5,24.9c-3,0-5.4-2.4-5.4-5.4s2.4-5.4,5.4-5.4s5.4,2.4,5.4,5.4S22.5,24.9,19.5,24.9z"/>
			</defs>
			<use xlink:href="#SVGID_423_"  style="overflow:visible;fill:#50D2C2;"/>
			<clipPath id="SVGID_1_">
				<use xlink:href="#SVGID_423_"  style="overflow:visible;"/>
			</clipPath>
			<polygon style="clip-path:url(#SVGID_1_);fill:#50D2C2;" points="12,26.7 12.3,27 12,27 			"/>
			<polygon style="clip-path:url(#SVGID_1_);fill:#50D2C2;" points="12,26.4 12.8,27 12.3,27 12,26.7 			"/>
			<polygon style="clip-path:url(#SVGID_1_);fill:#50D2C2;" points="12,26 13.3,27 12.8,27 12,26.4 			"/>
			<polygon style="clip-path:url(#SVGID_1_);fill:#50D2C2;" points="12,25.7 13.8,27 13.3,27 12,26 			"/>
			<polygon style="clip-path:url(#SVGID_1_);fill:#50D2C2;" points="12,25.3 14.2,27 13.8,27 12,25.7 			"/>
			<polygon style="clip-path:url(#SVGID_1_);fill:#50D2C2;" points="12,24.9 14.7,27 14.2,27 12,25.3 			"/>
			<polygon style="clip-path:url(#SVGID_1_);fill:#50D2C2;" points="12,24.6 15.2,27 14.7,27 12,24.9 			"/>
			<polygon style="clip-path:url(#SVGID_1_);fill:#50D2C2;" points="12,24.2 15.7,27 15.2,27 12,24.6 			"/>
			<polygon style="clip-path:url(#SVGID_1_);fill:#50D2C2;" points="12,23.8 16.2,27 15.7,27 12,24.2 			"/>
			<polygon style="clip-path:url(#SVGID_1_);fill:#50D2C2;" points="12,23.5 16.6,27 16.2,27 12,23.8 			"/>
			<polygon style="clip-path:url(#SVGID_1_);fill:#50D2C2;" points="12,23.1 17.1,27 16.6,27 12,23.5 			"/>
			<polygon style="clip-path:url(#SVGID_1_);fill:#50D2C2;" points="12,22.8 17.6,27 17.1,27 12,23.1 			"/>
			<polygon style="clip-path:url(#SVGID_1_);fill:#50D2C2;" points="12,22.4 18.1,27 17.6,27 12,22.8 			"/>
			<polygon style="clip-path:url(#SVGID_1_);fill:#50D2C2;" points="12,22 18.6,27 18.1,27 12,22.4 			"/>
			<polygon style="clip-path:url(#SVGID_1_);fill:#50D2C2;" points="12,21.7 19,27 18.6,27 12,22 			"/>
			<polygon style="clip-path:url(#SVGID_1_);fill:#50D2C2;" points="12,21.3 19.5,27 19,27 12,21.7 			"/>
			<polygon style="clip-path:url(#SVGID_1_);fill:#50D2C2;" points="12,21 20,27 19.5,27 12,21.3 			"/>
			<polygon style="clip-path:url(#SVGID_1_);fill:#50D2C2;" points="12,20.6 20.5,27 20,27 12,21 			"/>
			<polygon style="clip-path:url(#SVGID_1_);fill:#50D2C2;" points="12,20.2 21,27 20.5,27 12,20.6 			"/>
			<polygon style="clip-path:url(#SVGID_1_);fill:#50D2C2;" points="12,19.9 21.4,27 21,27 12,20.2 			"/>
			<polygon style="clip-path:url(#SVGID_1_);fill:#50D2C2;" points="12,19.5 21.9,27 21.4,27 12,19.9 			"/>
			<polygon style="clip-path:url(#SVGID_1_);fill:#50D2C2;" points="12,19.1 22.4,27 21.9,27 12,19.5 			"/>
			<polygon style="clip-path:url(#SVGID_1_);fill:#50D2C2;" points="12,18.8 22.9,27 22.4,27 12,19.1 			"/>
			<polygon style="clip-path:url(#SVGID_1_);fill:#50D2C2;" points="12,18.4 23.4,27 22.9,27 12,18.8 			"/>
			<polygon style="clip-path:url(#SVGID_1_);fill:#50D2C2;" points="12,18.1 23.8,27 23.4,27 12,18.4 			"/>
			<polygon style="clip-path:url(#SVGID_1_);fill:#50D2C2;" points="12,17.7 24.3,27 23.8,27 12,18.1 			"/>
			<polygon style="clip-path:url(#SVGID_1_);fill:#50D2C2;" points="12,17.3 24.8,27 24.3,27 12,17.7 			"/>
			<polygon style="clip-path:url(#SVGID_1_);fill:#50D2C2;" points="12,17 25.3,27 24.8,27 12,17.3 			"/>
			<polygon style="clip-path:url(#SVGID_1_);fill:#50D2C2;" points="12,16.6 25.8,27 25.3,27 12,17 			"/>
			<polygon style="clip-path:url(#SVGID_1_);fill:#50D2C2;" points="12,16.3 26.2,27 25.8,27 12,16.6 			"/>
			<polygon style="clip-path:url(#SVGID_1_);fill:#50D2C2;" points="12,15.9 26.7,27 26.2,27 12,16.3 			"/>
			<polygon style="clip-path:url(#SVGID_1_);fill:#50D2C2;" points="12,15.5 27,26.8 27,27 26.7,27 12,15.9 			"/>
			<polygon style="clip-path:url(#SVGID_1_);fill:#50D2C2;" points="12,15.2 27,26.5 27,26.8 12,15.5 			"/>
			<polygon style="clip-path:url(#SVGID_1_);fill:#50D2C2;" points="12,14.8 27,26.1 27,26.5 12,15.2 			"/>
			<polygon style="clip-path:url(#SVGID_1_);fill:#50D2C2;" points="12,14.4 27,25.8 27,26.1 12,14.8 			"/>
			<polygon style="clip-path:url(#SVGID_1_);fill:#50D2C2;" points="12,14.1 27,25.4 27,25.8 12,14.4 			"/>
			<polygon style="clip-path:url(#SVGID_1_);fill:#50D2C2;" points="12,13.7 27,25 27,25.4 12,14.1 			"/>
			<polygon style="clip-path:url(#SVGID_1_);fill:#50D2C2;" points="12,13.4 27,24.7 27,25 12,13.7 			"/>
			<polygon style="clip-path:url(#SVGID_1_);fill:#50D2C2;" points="12,13 27,24.3 27,24.7 12,13.4 			"/>
			<polygon style="clip-path:url(#SVGID_1_);fill:#50D2C2;" points="12,12.6 27,23.9 27,24.3 12,13 			"/>
			<polygon style="clip-path:url(#SVGID_1_);fill:#50D2C2;" points="12,12.3 27,23.6 27,23.9 12,12.6 			"/>
			<polygon style="clip-path:url(#SVGID_1_);fill:#50D2C2;" points="12.1,12 27,23.2 27,23.6 12,12.3 12,12 			"/>
			<polygon style="clip-path:url(#SVGID_1_);fill:#50D2C2;" points="12.6,12 27,22.9 27,23.2 12.1,12 			"/>
			<polygon style="clip-path:url(#SVGID_1_);fill:#50D2C2;" points="13,12 27,22.5 27,22.9 12.6,12 			"/>
			<polygon style="clip-path:url(#SVGID_1_);fill:#50D2C2;" points="13.5,12 27,22.1 27,22.5 13,12 			"/>
			<polygon style="clip-path:url(#SVGID_1_);fill:#50D2C2;" points="14,12 27,21.8 27,22.1 13.5,12 			"/>
			<polygon style="clip-path:url(#SVGID_1_);fill:#50D2C2;" points="14.5,12 27,21.4 27,21.8 14,12 			"/>
			<polygon style="clip-path:url(#SVGID_1_);fill:#50D2C2;" points="15,12 27,21 27,21.4 14.5,12 			"/>
			<polygon style="clip-path:url(#SVGID_1_);fill:#50D2C2;" points="15.4,12 27,20.7 27,21 15,12 			"/>
			<polygon style="clip-path:url(#SVGID_1_);fill:#50D2C2;" points="15.9,12 27,20.3 27,20.7 15.4,12 			"/>
			<polygon style="clip-path:url(#SVGID_1_);fill:#50D2C2;" points="16.4,12 27,20 27,20.3 15.9,12 			"/>
			<polygon style="clip-path:url(#SVGID_1_);fill:#50D2C2;" points="16.9,12 27,19.6 27,20 16.4,12 			"/>
			<polygon style="clip-path:url(#SVGID_1_);fill:#50D2C2;" points="17.4,12 27,19.2 27,19.6 16.9,12 			"/>
			<polygon style="clip-path:url(#SVGID_1_);fill:#50D2C2;" points="17.8,12 27,18.9 27,19.2 17.4,12 			"/>
			<polygon style="clip-path:url(#SVGID_1_);fill:#50D2C2;" points="18.3,12 27,18.5 27,18.9 17.8,12 			"/>
			<polygon style="clip-path:url(#SVGID_1_);fill:#50D2C2;" points="18.8,12 27,18.2 27,18.5 18.3,12 			"/>
			<polygon style="clip-path:url(#SVGID_1_);fill:#50D2C2;" points="19.3,12 27,17.8 27,18.2 18.8,12 			"/>
			<polygon style="clip-path:url(#SVGID_1_);fill:#50D2C2;" points="19.8,12 27,17.4 27,17.8 19.3,12 			"/>
			<polygon style="clip-path:url(#SVGID_1_);fill:#50D2C2;" points="20.2,12 27,17.1 27,17.4 19.8,12 			"/>
			<polygon style="clip-path:url(#SVGID_1_);fill:#50D2C2;" points="20.7,12 27,16.7 27,17.1 20.2,12 			"/>
			<polygon style="clip-path:url(#SVGID_1_);fill:#50D2C2;" points="21.2,12 27,16.3 27,16.7 20.7,12 			"/>
			<polygon style="clip-path:url(#SVGID_1_);fill:#50D2C2;" points="21.7,12 27,16 27,16.3 21.2,12 			"/>
			<polygon style="clip-path:url(#SVGID_1_);fill:#50D2C2;" points="22.2,12 27,15.6 27,16 21.7,12 			"/>
			<polygon style="clip-path:url(#SVGID_1_);fill:#50D2C2;" points="22.6,12 27,15.3 27,15.6 22.2,12 			"/>
			<polygon style="clip-path:url(#SVGID_1_);fill:#50D2C2;" points="23.1,12 27,14.9 27,15.3 22.6,12 			"/>
			<polygon style="clip-path:url(#SVGID_1_);fill:#50D2C2;" points="23.6,12 27,14.5 27,14.9 23.1,12 			"/>
			<polygon style="clip-path:url(#SVGID_1_);fill:#50D2C2;" points="24.1,12 27,14.2 27,14.5 23.6,12 			"/>
			<polygon style="clip-path:url(#SVGID_1_);fill:#50D2C2;" points="24.6,12 27,13.8 27,14.2 24.1,12 			"/>
			<polygon style="clip-path:url(#SVGID_1_);fill:#50D2C2;" points="25,12 27,13.5 27,13.8 24.6,12 			"/>
			<polygon style="clip-path:url(#SVGID_1_);fill:#50D2C2;" points="25.5,12 27,13.1 27,13.5 25,12 			"/>
			<polygon style="clip-path:url(#SVGID_1_);fill:#50D2C2;" points="26,12 27,12.7 27,13.1 25.5,12 			"/>
			<polygon style="clip-path:url(#SVGID_1_);fill:#50D2C2;" points="26.5,12 27,12.4 27,12.7 26,12 			"/>
			<polygon style="clip-path:url(#SVGID_1_);fill:#50D2C2;" points="27,12 27,12 27,12.4 26.5,12 			"/>
			<polygon style="clip-path:url(#SVGID_1_);fill:#50D2C2;" points="27,12 27,12 27,12 			"/>
		</g>
	</g>
	<g>
		<g>
			<defs>
				<path id="SVGID_425_" d="M19.5,4.6c8.2,0,14.9,6.7,14.9,14.9c0,10.2-13.3,25.2-13.9,25.8c-0.3,0.3-0.6,0.4-1,0.4
					c-0.4,0-0.7-0.1-1-0.4C17.9,44.7,4.6,29.7,4.6,19.5C4.6,11.3,11.3,4.6,19.5,4.6 M19.5,0C8.7,0,0,8.7,0,19.5
					c0,5.2,2.5,11.6,7.5,19c3.6,5.3,7.2,9.4,7.6,9.8c1.1,1.2,2.7,2,4.4,2c1.7,0,3.3-0.7,4.4-2c0.4-0.4,4-4.5,7.6-9.8
					c5-7.5,7.5-13.9,7.5-19C39,8.7,30.2,0,19.5,0L19.5,0z"/>
			</defs>
			<use xlink:href="#SVGID_425_"  style="overflow:visible;fill:#50D2C2;"/>
			<clipPath id="SVGID_2_">
				<use xlink:href="#SVGID_425_"  style="overflow:visible;"/>
			</clipPath>
			<polygon style="clip-path:url(#SVGID_2_);fill:#50D2C2;" points="0,37.1 17.5,50.3 0,50.3 			"/>
			<polygon style="clip-path:url(#SVGID_2_);fill:#50D2C2;" points="0,36.4 18.5,50.3 17.5,50.3 0,37.1 			"/>
			<polygon style="clip-path:url(#SVGID_2_);fill:#50D2C2;" points="0,35.6 19.5,50.3 18.5,50.3 0,36.4 			"/>
			<polygon style="clip-path:url(#SVGID_2_);fill:#50D2C2;" points="0,34.9 20.5,50.3 19.5,50.3 0,35.6 			"/>
			<polygon style="clip-path:url(#SVGID_2_);fill:#50D2C2;" points="0,34.1 21.5,50.3 20.5,50.3 0,34.9 			"/>
			<polygon style="clip-path:url(#SVGID_2_);fill:#50D2C2;" points="0,33.4 22.5,50.3 21.5,50.3 0,34.1 			"/>
			<polygon style="clip-path:url(#SVGID_2_);fill:#50D2C2;" points="0,32.6 23.5,50.3 22.5,50.3 0,33.4 			"/>
			<polygon style="clip-path:url(#SVGID_2_);fill:#50D2C2;" points="0,31.8 24.5,50.3 23.5,50.3 0,32.6 			"/>
			<polygon style="clip-path:url(#SVGID_2_);fill:#50D2C2;" points="0,31.1 25.5,50.3 24.5,50.3 0,31.8 			"/>
			<polygon style="clip-path:url(#SVGID_2_);fill:#50D2C2;" points="0,30.3 26.4,50.2 26.3,50.3 25.5,50.3 0,31.1 			"/>
			<polygon style="clip-path:url(#SVGID_2_);fill:#50D2C2;" points="0,29.6 26.8,49.7 26.4,50.2 0,30.3 			"/>
			<polygon style="clip-path:url(#SVGID_2_);fill:#50D2C2;" points="0,28.8 27.1,49.3 26.8,49.7 0,29.6 			"/>
			<polygon style="clip-path:url(#SVGID_2_);fill:#50D2C2;" points="0,28.1 27.5,48.8 27.1,49.3 0,28.8 			"/>
			<polygon style="clip-path:url(#SVGID_2_);fill:#50D2C2;" points="0,27.3 27.9,48.3 27.5,48.8 0,28.1 			"/>
			<polygon style="clip-path:url(#SVGID_2_);fill:#50D2C2;" points="0,26.5 28.2,47.8 27.9,48.3 0,27.3 			"/>
			<polygon style="clip-path:url(#SVGID_2_);fill:#50D2C2;" points="0,25.8 28.6,47.3 28.2,47.8 0,26.5 			"/>
			<polygon style="clip-path:url(#SVGID_2_);fill:#50D2C2;" points="0,25 29,46.9 28.6,47.3 0,25.8 			"/>
			<polygon style="clip-path:url(#SVGID_2_);fill:#50D2C2;" points="0,24.3 29.3,46.4 29,46.9 0,25 			"/>
			<polygon style="clip-path:url(#SVGID_2_);fill:#50D2C2;" points="0,23.5 29.7,45.9 29.3,46.4 0,24.3 			"/>
			<polygon style="clip-path:url(#SVGID_2_);fill:#50D2C2;" points="0,22.8 30,45.4 29.7,45.9 0,23.5 			"/>
			<polygon style="clip-path:url(#SVGID_2_);fill:#50D2C2;" points="0,22 30.4,44.9 30,45.4 0,22.8 			"/>
			<polygon style="clip-path:url(#SVGID_2_);fill:#50D2C2;" points="0,21.3 30.8,44.4 30.4,44.9 0,22 			"/>
			<polygon style="clip-path:url(#SVGID_2_);fill:#50D2C2;" points="0,20.5 31.1,44 30.8,44.4 0,21.3 			"/>
			<polygon style="clip-path:url(#SVGID_2_);fill:#50D2C2;" points="0,19.7 31.5,43.5 31.1,44 0,20.5 			"/>
			<polygon style="clip-path:url(#SVGID_2_);fill:#50D2C2;" points="0,19 31.9,43 31.5,43.5 0,19.7 			"/>
			<polygon style="clip-path:url(#SVGID_2_);fill:#50D2C2;" points="0,18.2 32.2,42.5 31.9,43 0,19 			"/>
			<polygon style="clip-path:url(#SVGID_2_);fill:#50D2C2;" points="0,17.5 32.6,42 32.2,42.5 0,18.2 			"/>
			<polygon style="clip-path:url(#SVGID_2_);fill:#50D2C2;" points="0,16.7 33,41.5 32.6,42 0,17.5 			"/>
			<polygon style="clip-path:url(#SVGID_2_);fill:#50D2C2;" points="0,16 33.3,41.1 33,41.5 0,16.7 			"/>
			<polygon style="clip-path:url(#SVGID_2_);fill:#50D2C2;" points="0,15.2 33.7,40.6 33.3,41.1 0,16 			"/>
			<polygon style="clip-path:url(#SVGID_2_);fill:#50D2C2;" points="0,14.4 34,40.1 33.7,40.6 0,15.2 			"/>
			<polygon style="clip-path:url(#SVGID_2_);fill:#50D2C2;" points="0,13.7 34.4,39.6 34,40.1 0,14.4 			"/>
			<polygon style="clip-path:url(#SVGID_2_);fill:#50D2C2;" points="0,12.9 34.8,39.1 34.4,39.6 0,13.7 			"/>
			<polygon style="clip-path:url(#SVGID_2_);fill:#50D2C2;" points="0,12.2 35.1,38.7 34.8,39.1 0,12.9 			"/>
			<polygon style="clip-path:url(#SVGID_2_);fill:#50D2C2;" points="0,11.4 35.5,38.2 35.1,38.7 0,12.2 			"/>
			<polygon style="clip-path:url(#SVGID_2_);fill:#50D2C2;" points="0,10.7 35.9,37.7 35.5,38.2 0,11.4 			"/>
			<polygon style="clip-path:url(#SVGID_2_);fill:#50D2C2;" points="0,9.9 36.2,37.2 35.9,37.7 0,10.7 			"/>
			<polygon style="clip-path:url(#SVGID_2_);fill:#50D2C2;" points="0,9.2 36.6,36.7 36.2,37.2 0,9.9 			"/>
			<polygon style="clip-path:url(#SVGID_2_);fill:#50D2C2;" points="0,8.4 37,36.2 36.6,36.7 0,9.2 			"/>
			<polygon style="clip-path:url(#SVGID_2_);fill:#50D2C2;" points="0,7.6 37.3,35.8 37,36.2 0,8.4 			"/>
			<polygon style="clip-path:url(#SVGID_2_);fill:#50D2C2;" points="0,6.9 37.7,35.3 37.3,35.8 0,7.6 			"/>
			<polygon style="clip-path:url(#SVGID_2_);fill:#50D2C2;" points="0,6.1 38,34.8 37.7,35.3 0,6.9 			"/>
			<polygon style="clip-path:url(#SVGID_2_);fill:#50D2C2;" points="0,5.4 38.4,34.3 38,34.8 0,6.1 			"/>
			<polygon style="clip-path:url(#SVGID_2_);fill:#50D2C2;" points="0,4.6 38.8,33.8 38.4,34.3 0,5.4 			"/>
			<polygon style="clip-path:url(#SVGID_2_);fill:#50D2C2;" points="0,4.3 0.2,4 39,33.2 39,33.6 38.8,33.8 0,4.6 			"/>
			<polygon style="clip-path:url(#SVGID_2_);fill:#50D2C2;" points="0.2,4 0.6,3.6 39,32.5 39,33.2 			"/>
			<polygon style="clip-path:url(#SVGID_2_);fill:#50D2C2;" points="0.6,3.6 1,3.1 39,31.7 39,32.5 			"/>
			<polygon style="clip-path:url(#SVGID_2_);fill:#50D2C2;" points="1,3.1 1.3,2.6 39,31 39,31.7 			"/>
			<polygon style="clip-path:url(#SVGID_2_);fill:#50D2C2;" points="1.3,2.6 1.7,2.1 39,30.2 39,31 			"/>
			<polygon style="clip-path:url(#SVGID_2_);fill:#50D2C2;" points="1.7,2.1 2.1,1.6 39,29.4 39,30.2 			"/>
			<polygon style="clip-path:url(#SVGID_2_);fill:#50D2C2;" points="2.1,1.6 2.4,1.1 39,28.7 39,29.4 			"/>
			<polygon style="clip-path:url(#SVGID_2_);fill:#50D2C2;" points="2.4,1.1 2.8,0.7 39,27.9 39,28.7 			"/>
			<polygon style="clip-path:url(#SVGID_2_);fill:#50D2C2;" points="2.8,0.7 3.1,0.2 39,27.2 39,27.9 			"/>
			<polygon style="clip-path:url(#SVGID_2_);fill:#50D2C2;" points="3.1,0.2 3.3,0 3.9,0 39,26.4 39,27.2 			"/>
			<polygon style="clip-path:url(#SVGID_2_);fill:#50D2C2;" points="4.9,0 39,25.7 39,26.4 3.9,0 			"/>
			<polygon style="clip-path:url(#SVGID_2_);fill:#50D2C2;" points="5.9,0 39,24.9 39,25.7 4.9,0 			"/>
			<polygon style="clip-path:url(#SVGID_2_);fill:#50D2C2;" points="6.9,0 39,24.1 39,24.9 5.9,0 			"/>
			<polygon style="clip-path:url(#SVGID_2_);fill:#50D2C2;" points="7.9,0 39,23.4 39,24.1 6.9,0 			"/>
			<polygon style="clip-path:url(#SVGID_2_);fill:#50D2C2;" points="8.9,0 39,22.6 39,23.4 7.9,0 			"/>
			<polygon style="clip-path:url(#SVGID_2_);fill:#50D2C2;" points="9.9,0 39,21.9 39,22.6 8.9,0 			"/>
			<polygon style="clip-path:url(#SVGID_2_);fill:#50D2C2;" points="10.9,0 39,21.1 39,21.9 9.9,0 			"/>
			<polygon style="clip-path:url(#SVGID_2_);fill:#50D2C2;" points="11.9,0 39,20.4 39,21.1 10.9,0 			"/>
			<polygon style="clip-path:url(#SVGID_2_);fill:#50D2C2;" points="12.9,0 39,19.6 39,20.4 11.9,0 			"/>
			<polygon style="clip-path:url(#SVGID_2_);fill:#50D2C2;" points="13.9,0 39,18.9 39,19.6 12.9,0 			"/>
			<polygon style="clip-path:url(#SVGID_2_);fill:#50D2C2;" points="15,0 39,18.1 39,18.9 13.9,0 			"/>
			<polygon style="clip-path:url(#SVGID_2_);fill:#50D2C2;" points="16,0 39,17.3 39,18.1 15,0 			"/>
			<polygon style="clip-path:url(#SVGID_2_);fill:#50D2C2;" points="17,0 39,16.6 39,17.3 16,0 			"/>
			<polygon style="clip-path:url(#SVGID_2_);fill:#50D2C2;" points="18,0 39,15.8 39,16.6 17,0 			"/>
			<polygon style="clip-path:url(#SVGID_2_);fill:#50D2C2;" points="19,0 39,15.1 39,15.8 18,0 			"/>
			<polygon style="clip-path:url(#SVGID_2_);fill:#50D2C2;" points="20,0 39,14.3 39,15.1 19,0 			"/>
			<polygon style="clip-path:url(#SVGID_2_);fill:#50D2C2;" points="21,0 39,13.6 39,14.3 20,0 			"/>
			<polygon style="clip-path:url(#SVGID_2_);fill:#50D2C2;" points="22,0 39,12.8 39,13.6 21,0 			"/>
			<polygon style="clip-path:url(#SVGID_2_);fill:#50D2C2;" points="23,0 39,12 39,12.8 22,0 			"/>
			<polygon style="clip-path:url(#SVGID_2_);fill:#50D2C2;" points="24,0 39,11.3 39,12 23,0 			"/>
			<polygon style="clip-path:url(#SVGID_2_);fill:#50D2C2;" points="25,0 39,10.5 39,11.3 24,0 			"/>
			<polygon style="clip-path:url(#SVGID_2_);fill:#50D2C2;" points="26,0 39,9.8 39,10.5 25,0 			"/>
			<polygon style="clip-path:url(#SVGID_2_);fill:#50D2C2;" points="39,9.8 26,0 39,0 			"/>
			<polygon style="clip-path:url(#SVGID_2_);fill:#50D2C2;" points="4.6,40.6 11.4,45.8 4.6,45.8 			"/>
			<polygon style="clip-path:url(#SVGID_2_);fill:#50D2C2;" points="4.6,39.8 12.4,45.8 11.4,45.8 4.6,40.6 			"/>
			<polygon style="clip-path:url(#SVGID_2_);fill:#50D2C2;" points="4.6,39.1 13.4,45.8 12.4,45.8 4.6,39.8 			"/>
			<polygon style="clip-path:url(#SVGID_2_);fill:#50D2C2;" points="4.6,38.3 14.5,45.8 13.4,45.8 4.6,39.1 			"/>
			<polygon style="clip-path:url(#SVGID_2_);fill:#50D2C2;" points="4.6,37.6 15.5,45.8 14.5,45.8 4.6,38.3 			"/>
			<polygon style="clip-path:url(#SVGID_2_);fill:#50D2C2;" points="4.6,36.8 16.5,45.8 15.5,45.8 4.6,37.6 			"/>
			<polygon style="clip-path:url(#SVGID_2_);fill:#50D2C2;" points="4.6,36 17.5,45.8 16.5,45.8 4.6,36.8 			"/>
			<polygon style="clip-path:url(#SVGID_2_);fill:#50D2C2;" points="4.6,35.3 18.5,45.8 17.5,45.8 4.6,36 			"/>
			<polygon style="clip-path:url(#SVGID_2_);fill:#50D2C2;" points="4.6,34.5 19.5,45.8 18.5,45.8 4.6,35.3 			"/>
			<polygon style="clip-path:url(#SVGID_2_);fill:#50D2C2;" points="4.6,33.8 20.5,45.8 19.5,45.8 4.6,34.5 			"/>
			<polygon style="clip-path:url(#SVGID_2_);fill:#50D2C2;" points="4.6,33 21.5,45.8 20.5,45.8 4.6,33.8 			"/>
			<polygon style="clip-path:url(#SVGID_2_);fill:#50D2C2;" points="4.6,32.3 22.5,45.8 21.5,45.8 4.6,33 			"/>
			<polygon style="clip-path:url(#SVGID_2_);fill:#50D2C2;" points="4.6,31.5 23.5,45.8 22.5,45.8 4.6,32.3 			"/>
			<polygon style="clip-path:url(#SVGID_2_);fill:#50D2C2;" points="4.6,30.7 24.5,45.8 23.5,45.8 4.6,31.5 			"/>
			<polygon style="clip-path:url(#SVGID_2_);fill:#50D2C2;" points="4.6,30 25.5,45.8 24.5,45.8 4.6,30.7 			"/>
			<polygon style="clip-path:url(#SVGID_2_);fill:#50D2C2;" points="4.6,29.2 25.9,45.3 25.6,45.8 25.5,45.8 4.6,30 			"/>
			<polygon style="clip-path:url(#SVGID_2_);fill:#50D2C2;" points="4.6,28.5 26.3,44.8 25.9,45.3 4.6,29.2 			"/>
			<polygon style="clip-path:url(#SVGID_2_);fill:#50D2C2;" points="4.6,27.7 26.7,44.4 26.3,44.8 4.6,28.5 			"/>
			<polygon style="clip-path:url(#SVGID_2_);fill:#50D2C2;" points="4.6,27 27,43.9 26.7,44.4 4.6,27.7 			"/>
			<polygon style="clip-path:url(#SVGID_2_);fill:#50D2C2;" points="4.6,26.2 27.4,43.4 27,43.9 4.6,27 			"/>
			<polygon style="clip-path:url(#SVGID_2_);fill:#50D2C2;" points="4.6,25.5 27.8,42.9 27.4,43.4 4.6,26.2 			"/>
			<polygon style="clip-path:url(#SVGID_2_);fill:#50D2C2;" points="4.6,24.7 28.1,42.4 27.8,42.9 4.6,25.5 			"/>
			<polygon style="clip-path:url(#SVGID_2_);fill:#50D2C2;" points="4.6,23.9 28.5,42 28.1,42.4 4.6,24.7 			"/>
			<polygon style="clip-path:url(#SVGID_2_);fill:#50D2C2;" points="4.6,23.2 28.8,41.5 28.5,42 4.6,23.9 			"/>
			<polygon style="clip-path:url(#SVGID_2_);fill:#50D2C2;" points="4.6,22.4 29.2,41 28.8,41.5 4.6,23.2 			"/>
			<polygon style="clip-path:url(#SVGID_2_);fill:#50D2C2;" points="4.6,21.7 29.6,40.5 29.2,41 4.6,22.4 			"/>
			<polygon style="clip-path:url(#SVGID_2_);fill:#50D2C2;" points="4.6,20.9 29.9,40 29.6,40.5 4.6,21.7 			"/>
			<polygon style="clip-path:url(#SVGID_2_);fill:#50D2C2;" points="4.6,20.2 30.3,39.5 29.9,40 4.6,20.9 			"/>
			<polygon style="clip-path:url(#SVGID_2_);fill:#50D2C2;" points="4.6,19.4 30.7,39.1 30.3,39.5 4.6,20.2 			"/>
			<polygon style="clip-path:url(#SVGID_2_);fill:#50D2C2;" points="4.6,18.6 31,38.6 30.7,39.1 4.6,19.4 			"/>
			<polygon style="clip-path:url(#SVGID_2_);fill:#50D2C2;" points="4.6,17.9 31.4,38.1 31,38.6 4.6,18.6 			"/>
			<polygon style="clip-path:url(#SVGID_2_);fill:#50D2C2;" points="4.6,17.1 31.7,37.6 31.4,38.1 4.6,17.9 			"/>
			<polygon style="clip-path:url(#SVGID_2_);fill:#50D2C2;" points="4.6,16.4 32.1,37.1 31.7,37.6 4.6,17.1 			"/>
			<polygon style="clip-path:url(#SVGID_2_);fill:#50D2C2;" points="4.6,15.6 32.5,36.6 32.1,37.1 4.6,16.4 			"/>
			<polygon style="clip-path:url(#SVGID_2_);fill:#50D2C2;" points="4.6,14.9 32.8,36.2 32.5,36.6 4.6,15.6 			"/>
			<polygon style="clip-path:url(#SVGID_2_);fill:#50D2C2;" points="4.6,14.1 33.2,35.7 32.8,36.2 4.6,14.9 			"/>
			<polygon style="clip-path:url(#SVGID_2_);fill:#50D2C2;" points="4.6,13.4 33.6,35.2 33.2,35.7 4.6,14.1 			"/>
			<polygon style="clip-path:url(#SVGID_2_);fill:#50D2C2;" points="4.6,12.6 33.9,34.7 33.6,35.2 4.6,13.4 			"/>
			<polygon style="clip-path:url(#SVGID_2_);fill:#50D2C2;" points="4.6,11.8 34.3,34.2 33.9,34.7 4.6,12.6 			"/>
			<polygon style="clip-path:url(#SVGID_2_);fill:#50D2C2;" points="4.6,11.1 34.4,33.6 34.4,34.1 34.3,34.2 4.6,11.8 			"/>
			<polygon style="clip-path:url(#SVGID_2_);fill:#50D2C2;" points="4.6,10.3 34.4,32.8 34.4,33.6 4.6,11.1 			"/>
			<polygon style="clip-path:url(#SVGID_2_);fill:#50D2C2;" points="4.6,9.6 34.4,32 34.4,32.8 4.6,10.3 			"/>
			<polygon style="clip-path:url(#SVGID_2_);fill:#50D2C2;" points="4.6,8.8 34.4,31.3 34.4,32 4.6,9.6 			"/>
			<polygon style="clip-path:url(#SVGID_2_);fill:#50D2C2;" points="4.6,8.1 34.4,30.5 34.4,31.3 4.6,8.8 			"/>
			<polygon style="clip-path:url(#SVGID_2_);fill:#50D2C2;" points="4.6,7.3 34.4,29.8 34.4,30.5 4.6,8.1 			"/>
			<polygon style="clip-path:url(#SVGID_2_);fill:#50D2C2;" points="4.6,6.9 4.7,6.7 34.4,29 34.4,29.8 4.6,7.3 			"/>
			<polygon style="clip-path:url(#SVGID_2_);fill:#50D2C2;" points="4.7,6.7 5.1,6.2 34.4,28.3 34.4,29 			"/>
			<polygon style="clip-path:url(#SVGID_2_);fill:#50D2C2;" points="5.1,6.2 5.5,5.7 34.4,27.5 34.4,28.3 			"/>
			<polygon style="clip-path:url(#SVGID_2_);fill:#50D2C2;" points="5.5,5.7 5.8,5.2 34.4,26.8 34.4,27.5 			"/>
			<polygon style="clip-path:url(#SVGID_2_);fill:#50D2C2;" points="5.8,5.2 6.2,4.7 34.4,26 34.4,26.8 			"/>
			<polygon style="clip-path:url(#SVGID_2_);fill:#50D2C2;" points="6.2,4.7 6.3,4.6 7,4.6 34.4,25.2 34.4,26 			"/>
			<polygon style="clip-path:url(#SVGID_2_);fill:#50D2C2;" points="8,4.6 34.4,24.5 34.4,25.2 7,4.6 			"/>
			<polygon style="clip-path:url(#SVGID_2_);fill:#50D2C2;" points="9,4.6 34.4,23.7 34.4,24.5 8,4.6 			"/>
			<polygon style="clip-path:url(#SVGID_2_);fill:#50D2C2;" points="10,4.6 34.4,23 34.4,23.7 9,4.6 			"/>
			<polygon style="clip-path:url(#SVGID_2_);fill:#50D2C2;" points="11,4.6 34.4,22.2 34.4,23 10,4.6 			"/>
			<polygon style="clip-path:url(#SVGID_2_);fill:#50D2C2;" points="12,4.6 34.4,21.5 34.4,22.2 11,4.6 			"/>
			<polygon style="clip-path:url(#SVGID_2_);fill:#50D2C2;" points="13,4.6 34.4,20.7 34.4,21.5 12,4.6 			"/>
			<polygon style="clip-path:url(#SVGID_2_);fill:#50D2C2;" points="14,4.6 34.4,19.9 34.4,20.7 13,4.6 			"/>
			<polygon style="clip-path:url(#SVGID_2_);fill:#50D2C2;" points="15,4.6 34.4,19.2 34.4,19.9 14,4.6 			"/>
			<polygon style="clip-path:url(#SVGID_2_);fill:#50D2C2;" points="16,4.6 34.4,18.4 34.4,19.2 15,4.6 			"/>
			<polygon style="clip-path:url(#SVGID_2_);fill:#50D2C2;" points="17,4.6 34.4,17.7 34.4,18.4 16,4.6 			"/>
			<polygon style="clip-path:url(#SVGID_2_);fill:#50D2C2;" points="18,4.6 34.4,16.9 34.4,17.7 17,4.6 			"/>
			<polygon style="clip-path:url(#SVGID_2_);fill:#50D2C2;" points="19,4.6 34.4,16.2 34.4,16.9 18,4.6 			"/>
			<polygon style="clip-path:url(#SVGID_2_);fill:#50D2C2;" points="20,4.6 34.4,15.4 34.4,16.2 19,4.6 			"/>
			<polygon style="clip-path:url(#SVGID_2_);fill:#50D2C2;" points="21,4.6 34.4,14.7 34.4,15.4 20,4.6 			"/>
			<polygon style="clip-path:url(#SVGID_2_);fill:#50D2C2;" points="22,4.6 34.4,13.9 34.4,14.7 21,4.6 			"/>
			<polygon style="clip-path:url(#SVGID_2_);fill:#50D2C2;" points="23,4.6 34.4,13.1 34.4,13.9 22,4.6 			"/>
			<polygon style="clip-path:url(#SVGID_2_);fill:#50D2C2;" points="24,4.6 34.4,12.4 34.4,13.1 23,4.6 			"/>
			<polygon style="clip-path:url(#SVGID_2_);fill:#50D2C2;" points="25,4.6 34.4,11.6 34.4,12.4 24,4.6 			"/>
			<polygon style="clip-path:url(#SVGID_2_);fill:#50D2C2;" points="26,4.6 34.4,10.9 34.4,11.6 25,4.6 			"/>
			<polygon style="clip-path:url(#SVGID_2_);fill:#50D2C2;" points="27,4.6 34.4,10.1 34.4,10.9 26,4.6 			"/>
			<polygon style="clip-path:url(#SVGID_2_);fill:#50D2C2;" points="28,4.6 34.4,9.4 34.4,10.1 27,4.6 			"/>
			<polygon style="clip-path:url(#SVGID_2_);fill:#50D2C2;" points="29,4.6 34.4,8.6 34.4,9.4 28,4.6 			"/>
			<polygon style="clip-path:url(#SVGID_2_);fill:#50D2C2;" points="30.1,4.6 34.4,7.8 34.4,8.6 29,4.6 			"/>
			<polygon style="clip-path:url(#SVGID_2_);fill:#50D2C2;" points="31.1,4.6 34.4,7.1 34.4,7.8 30.1,4.6 			"/>
			<polygon style="clip-path:url(#SVGID_2_);fill:#50D2C2;" points="32.1,4.6 34.4,6.3 34.4,7.1 31.1,4.6 			"/>
			<polygon style="clip-path:url(#SVGID_2_);fill:#50D2C2;" points="34.4,6.3 32.1,4.6 34.4,4.6 			"/>
		</g>
	</g>
</g>
</svg>
